<mxfile host="drawio-plugin" modified="2021-10-16T14:45:36.775Z" agent="5.0 (Windows NT 6.2; Win64; x64) AppleWebKit/537.36 (KHTML, like Gecko) Chrome/84.0.4147.105 Safari/537.36" version="14.7.4" etag="brvQKTMaUdWXz4668EEZ" type="embed"><diagram id="WheWSepvwp4lieOlgeO4" name="Page-1"><mxGraphModel dx="1460" dy="329" grid="1" gridSize="10" guides="1" tooltips="1" connect="1" arrows="1" fold="1" page="1" pageScale="1" pageWidth="850" pageHeight="1100" math="0" shadow="0"><root><mxCell id="0"/><mxCell id="1" parent="0"/><mxCell id="18" value="imag&lt;br&gt;&lt;br&gt;&lt;br&gt;&lt;br&gt;&lt;br&gt;&lt;br&gt;&lt;br&gt;" style="rounded=0;whiteSpace=wrap;html=1;" vertex="1" parent="1"><mxGeometry x="55" y="30" width="740" height="450" as="geometry"/></mxCell><mxCell id="54" value="navbar" style="rounded=0;whiteSpace=wrap;html=1;" vertex="1" parent="1"><mxGeometry x="70" y="40" width="710" height="60" as="geometry"/></mxCell><mxCell id="52" value="logo" style="ellipse;whiteSpace=wrap;html=1;" vertex="1" parent="1"><mxGeometry x="80" y="45" width="45" height="50" as="geometry"/></mxCell><mxCell id="24" value="register" style="rounded=0;whiteSpace=wrap;html=1;fillColor=#dae8fc;strokeColor=#6c8ebf;" vertex="1" parent="1"><mxGeometry x="530" y="60" width="120" height="20" as="geometry"/></mxCell><mxCell id="50" value="login" style="rounded=0;whiteSpace=wrap;html=1;fillColor=#dae8fc;strokeColor=#6c8ebf;" vertex="1" parent="1"><mxGeometry x="660" y="60" width="120" height="20" as="geometry"/></mxCell><mxCell id="57" value="&amp;nbsp; &amp;nbsp; &amp;nbsp; navbar" style="rounded=0;whiteSpace=wrap;html=1;align=left;" vertex="1" parent="1"><mxGeometry x="70" y="110" width="710" height="60" as="geometry"/></mxCell><mxCell id="53" value="about&lt;br&gt;us" style="rounded=0;whiteSpace=wrap;html=1;fillColor=#dae8fc;strokeColor=#6c8ebf;" vertex="1" parent="1"><mxGeometry x="200" y="109.5" width="75" height="60" as="geometry"/></mxCell><mxCell id="21" value="about&lt;br&gt;adopt a pet" style="rounded=1;whiteSpace=wrap;html=1;fillColor=#dae8fc;strokeColor=#6c8ebf;" vertex="1" parent="1"><mxGeometry x="370" y="110" width="120" height="60" as="geometry"/></mxCell><mxCell id="22" value="about&lt;br&gt;donate for pets" style="rounded=1;whiteSpace=wrap;html=1;fillColor=#dae8fc;strokeColor=#6c8ebf;" vertex="1" parent="1"><mxGeometry x="580" y="110" width="120" height="60" as="geometry"/></mxCell><mxCell id="58" value="&lt;span style=&quot;color: rgba(0 , 0 , 0 , 0) ; font-family: monospace ; font-size: 0px&quot;&gt;xx&lt;/span&gt;" style="rounded=1;whiteSpace=wrap;html=1;" vertex="1" parent="1"><mxGeometry x="160" y="290" width="530" height="60" as="geometry"/></mxCell><mxCell id="60" value="motivational paragraph" style="text;html=1;strokeColor=none;fillColor=none;align=center;verticalAlign=middle;whiteSpace=wrap;rounded=0;" vertex="1" parent="1"><mxGeometry x="410" y="310" width="40" height="20" as="geometry"/></mxCell></root></mxGraphModel></diagram></mxfile>